<svg xmlns="http://www.w3.org/2000/svg" viewBox="0 0 147.26 446.04">
  <defs>
    <style>
      .a {
        stroke: #000;
        stroke-miterlimit: 10;
        stroke-width: 5px;
      }
    </style>
  </defs>
  <title>LSA1</title>
  <circle class="a" cx="19.5" cy="19.54" r="17"/>
  <circle class="a" cx="81.5" cy="208.54" r="17"/>
  <circle class="a" cx="19.5" cy="426.54" r="17"/>
  <g>
    <path d="M71.13,82.39h1.05V89.6h3.45v.88h-4.5Z" transform="translate(-18 -81.96)"/>
    <path d="M81.85,87.53A2.84,2.84,0,0,1,79,90.61a2.76,2.76,0,0,1-2.79-3,2.84,2.84,0,0,1,2.88-3.08A2.75,2.75,0,0,1,81.85,87.53Zm-4.61.06c0,1.27.73,2.23,1.76,2.23s1.77-.95,1.77-2.26c0-1-.49-2.23-1.74-2.23S77.24,86.48,77.24,87.59Z" transform="translate(-18 -81.96)"/>
    <path d="M87.32,90.26a4,4,0,0,1-1.67.34,2.76,2.76,0,0,1-2.89-3,3,3,0,0,1,3.12-3.08,3.6,3.6,0,0,1,1.46.3l-.24.82a2.35,2.35,0,0,0-1.22-.28,2,2,0,0,0-2,2.2,2,2,0,0,0,2,2.17,3,3,0,0,0,1.3-.29Z" transform="translate(-18 -81.96)"/>
    <path d="M91.77,90.48l-.08-.73h0a2.17,2.17,0,0,1-1.77.86,1.66,1.66,0,0,1-1.78-1.67c0-1.4,1.25-2.17,3.49-2.16v-.12a1.19,1.19,0,0,0-1.32-1.34,2.93,2.93,0,0,0-1.51.43l-.24-.69a3.55,3.55,0,0,1,1.91-.52c1.77,0,2.2,1.21,2.2,2.37v2.17a8.44,8.44,0,0,0,.1,1.4Zm-.15-3c-1.16,0-2.46.18-2.46,1.31a.93.93,0,0,0,1,1,1.45,1.45,0,0,0,1.41-1,1.35,1.35,0,0,0,.06-.34Z" transform="translate(-18 -81.96)"/>
    <path d="M94.34,82H95.4v8.52H94.34Z" transform="translate(-18 -81.96)"/>
    <path d="M99.61,89.21a3.78,3.78,0,0,0,1.87.52c1.07,0,1.69-.56,1.69-1.38s-.43-1.18-1.52-1.6c-1.32-.47-2.14-1.15-2.14-2.29a2.34,2.34,0,0,1,2.62-2.2,3.6,3.6,0,0,1,1.79.4l-.29.85a3.19,3.19,0,0,0-1.54-.39c-1.1,0-1.52.66-1.52,1.22,0,.75.49,1.12,1.61,1.56,1.36.52,2.06,1.18,2.06,2.37s-.92,2.33-2.83,2.33a4.13,4.13,0,0,1-2.06-.52Z" transform="translate(-18 -81.96)"/>
    <path d="M105.63,86.57c0-.75,0-1.35,0-1.9h1l0,1h0a2.3,2.3,0,0,1,2.07-1.13c1.4,0,2.46,1.19,2.46,2.95,0,2.09-1.27,3.12-2.64,3.12a2.05,2.05,0,0,1-1.79-.91h0v3.15h-1.05Zm1.05,1.54a3,3,0,0,0,0,.44,1.64,1.64,0,0,0,1.59,1.23c1.11,0,1.76-.91,1.76-2.24,0-1.16-.61-2.16-1.73-2.16a1.68,1.68,0,0,0-1.59,1.31,1.49,1.49,0,0,0-.07.43Z" transform="translate(-18 -81.96)"/>
    <path d="M113.64,83a.63.63,0,0,1-.68.65.63.63,0,0,1-.63-.65.65.65,0,0,1,.66-.66A.63.63,0,0,1,113.64,83Zm-1.18,7.44V84.67h1.06v5.81Z" transform="translate(-18 -81.96)"/>
    <path d="M115.27,86.48c0-.68,0-1.27,0-1.81h.92l0,1.14h0a1.74,1.74,0,0,1,1.61-1.27,1,1,0,0,1,.3,0v1a1.94,1.94,0,0,0-.36,0,1.47,1.47,0,0,0-1.42,1.35,3.37,3.37,0,0,0,0,.49v3.1h-1Z" transform="translate(-18 -81.96)"/>
    <path d="M120.42,83a.63.63,0,0,1-.68.65.63.63,0,0,1-.63-.65.64.64,0,0,1,.66-.66A.63.63,0,0,1,120.42,83Zm-1.18,7.44V84.67h1.06v5.81Z" transform="translate(-18 -81.96)"/>
    <path d="M123.32,83v1.67h1.51v.81h-1.51v3.13c0,.72.2,1.12.79,1.12a2.15,2.15,0,0,0,.61-.07l0,.79a2.44,2.44,0,0,1-.94.15,1.44,1.44,0,0,1-1.13-.45,2.13,2.13,0,0,1-.41-1.51V85.48h-.9v-.81h.9V83.28Z" transform="translate(-18 -81.96)"/>
    <path d="M130.88,88.89c0,.6,0,1.13.05,1.59H130l-.06-1h0A2.19,2.19,0,0,1,128,90.61c-.91,0-2-.51-2-2.54v-3.4H127v3.22c0,1.1.34,1.84,1.29,1.84a1.54,1.54,0,0,0,1.4-1,1.49,1.49,0,0,0,.09-.54V84.67h1.06Z" transform="translate(-18 -81.96)"/>
    <path d="M135.85,90.48l-.09-.73h0a2.19,2.19,0,0,1-1.78.86,1.65,1.65,0,0,1-1.77-1.67c0-1.4,1.24-2.17,3.49-2.16v-.12a1.19,1.19,0,0,0-1.32-1.34,2.9,2.9,0,0,0-1.51.43l-.24-.69a3.51,3.51,0,0,1,1.9-.52c1.78,0,2.21,1.21,2.21,2.37v2.17a7.49,7.49,0,0,0,.1,1.4Zm-.16-3c-1.15,0-2.46.18-2.46,1.31a.94.94,0,0,0,1,1,1.45,1.45,0,0,0,1.4-1,1,1,0,0,0,.06-.34Z" transform="translate(-18 -81.96)"/>
    <path d="M138.42,82h1.05v8.52h-1.05Z" transform="translate(-18 -81.96)"/>
    <path d="M83.46,102.33l-.84,2.55H81.54l2.75-8.09h1.26l2.76,8.09H87.19l-.86-2.55Zm2.65-.81-.79-2.33c-.18-.53-.3-1-.42-1.47h0c-.12.48-.25,1-.41,1.46l-.79,2.34Z" transform="translate(-18 -81.96)"/>
    <path d="M89.25,103.8a2.79,2.79,0,0,0,1.39.42c.77,0,1.13-.39,1.13-.87s-.3-.78-1.08-1.06c-1-.37-1.54-1-1.54-1.65a1.79,1.79,0,0,1,2-1.7,2.91,2.91,0,0,1,1.43.36l-.26.77a2.22,2.22,0,0,0-1.19-.34c-.62,0-1,.36-1,.79s.35.7,1.1,1c1,.38,1.53.88,1.53,1.75S92,105,90.61,105a3.33,3.33,0,0,1-1.63-.4Z" transform="translate(-18 -81.96)"/>
    <path d="M94,103.8a2.79,2.79,0,0,0,1.39.42c.77,0,1.13-.39,1.13-.87s-.3-.78-1.08-1.06c-1-.37-1.54-1-1.54-1.65a1.8,1.8,0,0,1,2-1.7,2.9,2.9,0,0,1,1.42.36l-.26.77a2.22,2.22,0,0,0-1.19-.34c-.62,0-1,.36-1,.79s.35.7,1.1,1c1,.38,1.53.88,1.53,1.75S96.75,105,95.37,105a3.27,3.27,0,0,1-1.63-.4Z" transform="translate(-18 -81.96)"/>
    <path d="M99.48,102.17a1.86,1.86,0,0,0,2,2,3.8,3.8,0,0,0,1.61-.3l.18.76a4.84,4.84,0,0,1-1.93.36,2.69,2.69,0,0,1-2.85-2.93c0-1.75,1-3.13,2.72-3.13a2.46,2.46,0,0,1,2.4,2.73,4.36,4.36,0,0,1,0,.5Zm3.1-.76a1.5,1.5,0,0,0-1.47-1.71,1.74,1.74,0,0,0-1.61,1.71Z" transform="translate(-18 -81.96)"/>
    <path d="M104.91,100.64c0-.6,0-1.09,0-1.57h.92l0,.94h0a2,2,0,0,1,1.82-1.07,1.71,1.71,0,0,1,1.64,1.16h0a2.39,2.39,0,0,1,.64-.75,2,2,0,0,1,1.29-.41c.76,0,1.9.5,1.9,2.52v3.42h-1v-3.29c0-1.11-.41-1.79-1.26-1.79a1.37,1.37,0,0,0-1.24,1,1.73,1.73,0,0,0-.09.53v3.59h-1V101.4c0-.92-.41-1.6-1.21-1.6a1.56,1.56,0,0,0-1.39,1.58v3.5h-1Z" transform="translate(-18 -81.96)"/>
    <path d="M114.87,104.88c0-.4,0-1,0-1.5v-7h1V100h0a2.17,2.17,0,0,1,2-1.07c1.44,0,2.46,1.2,2.45,3,0,2.08-1.31,3.11-2.61,3.11a2.07,2.07,0,0,1-1.94-1.09h0l0,1Zm1.09-2.33a1.58,1.58,0,0,0,.05.38,1.61,1.61,0,0,0,1.58,1.24c1.1,0,1.76-.9,1.76-2.23,0-1.16-.6-2.16-1.73-2.16a1.68,1.68,0,0,0-1.6,1.3,1.71,1.71,0,0,0-.06.43Z" transform="translate(-18 -81.96)"/>
    <path d="M121.74,96.36h1.06v8.52h-1.06Z" transform="translate(-18 -81.96)"/>
    <path d="M125,99.07l1.27,3.43c.13.39.28.84.37,1.19h0c.1-.35.22-.79.37-1.21l1.15-3.41h1.11l-1.58,4.14c-.75,2-1.27,3-2,3.63a2.87,2.87,0,0,1-1.3.69l-.26-.89a2.65,2.65,0,0,0,.92-.52,3.09,3.09,0,0,0,.89-1.17.76.76,0,0,0,.09-.25.94.94,0,0,0-.08-.28l-2.14-5.35Z" transform="translate(-18 -81.96)"/>
  </g>
  <g>
    <path d="M121.07,282.48v-8.09h1.14l2.59,4.09a22.28,22.28,0,0,1,1.45,2.63h0c-.1-1.08-.12-2.07-.12-3.32v-3.39h1v8.09h-1.06l-2.56-4.1a27.44,27.44,0,0,1-1.51-2.7h0c.06,1,.08,2,.08,3.33v3.46Z" transform="translate(-18 -81.96)"/>
    <path d="M132.15,282.48l-.09-.73h0a2.19,2.19,0,0,1-1.78.86,1.65,1.65,0,0,1-1.77-1.67c0-1.4,1.24-2.17,3.49-2.16v-.12a1.2,1.2,0,0,0-1.32-1.34,3,3,0,0,0-1.52.43l-.23-.69a3.51,3.51,0,0,1,1.9-.52c1.78,0,2.21,1.21,2.21,2.37v2.17a8.52,8.52,0,0,0,.09,1.4Zm-.16-3c-1.15,0-2.46.18-2.46,1.31a.94.94,0,0,0,1,1,1.45,1.45,0,0,0,1.4-1,1,1,0,0,0,.06-.34Z" transform="translate(-18 -81.96)"/>
    <path d="M135.94,275v1.67h1.51v.81h-1.51v3.13c0,.72.2,1.12.79,1.12a2.15,2.15,0,0,0,.61-.07l0,.79a2.44,2.44,0,0,1-.94.15,1.44,1.44,0,0,1-1.13-.45,2.13,2.13,0,0,1-.41-1.51v-3.16H134v-.81h.9v-1.39Z" transform="translate(-18 -81.96)"/>
    <path d="M139.81,275a.62.62,0,0,1-.67.65.63.63,0,0,1-.63-.65.64.64,0,0,1,.66-.66A.62.62,0,0,1,139.81,275Zm-1.17,7.44v-5.81h1.05v5.81Z" transform="translate(-18 -81.96)"/>
    <path d="M146.7,279.53a2.84,2.84,0,0,1-2.89,3.08,2.76,2.76,0,0,1-2.78-3,2.83,2.83,0,0,1,2.88-3.08A2.75,2.75,0,0,1,146.7,279.53Zm-4.61.06c0,1.27.74,2.23,1.77,2.23s1.76-.95,1.76-2.26c0-1-.49-2.23-1.74-2.23S142.09,278.48,142.09,279.59Z" transform="translate(-18 -81.96)"/>
    <path d="M148,278.24c0-.6,0-1.09,0-1.57h.93l.06,1h0a2.12,2.12,0,0,1,1.91-1.09c.81,0,2.06.48,2.06,2.47v3.47h-1.06v-3.35c0-.93-.35-1.71-1.34-1.71a1.5,1.5,0,0,0-1.42,1.08,1.45,1.45,0,0,0-.07.49v3.49H148Z" transform="translate(-18 -81.96)"/>
    <path d="M157.91,282.48l-.08-.73h0a2.19,2.19,0,0,1-1.78.86,1.65,1.65,0,0,1-1.77-1.67c0-1.4,1.25-2.17,3.49-2.16v-.12a1.19,1.19,0,0,0-1.32-1.34,2.93,2.93,0,0,0-1.51.43l-.24-.69a3.52,3.52,0,0,1,1.91-.52c1.77,0,2.2,1.21,2.2,2.37v2.17a8.44,8.44,0,0,0,.1,1.4Zm-.16-3c-1.15,0-2.46.18-2.46,1.31a.94.94,0,0,0,1,1,1.43,1.43,0,0,0,1.4-1,1,1,0,0,0,.06-.34Z" transform="translate(-18 -81.96)"/>
    <path d="M160.48,274h1.05v8.52h-1.05Z" transform="translate(-18 -81.96)"/>
    <path d="M121.3,295.61a3.78,3.78,0,0,0,1.87.52c1.07,0,1.69-.56,1.69-1.38s-.43-1.18-1.52-1.6c-1.32-.47-2.14-1.15-2.14-2.29a2.34,2.34,0,0,1,2.62-2.2,3.6,3.6,0,0,1,1.79.4l-.29.85a3.21,3.21,0,0,0-1.54-.38c-1.1,0-1.52.65-1.52,1.21,0,.75.49,1.12,1.61,1.56,1.36.52,2.06,1.18,2.06,2.37S125,297,123.1,297a4.13,4.13,0,0,1-2.06-.52Z" transform="translate(-18 -81.96)"/>
    <path d="M127.32,293c0-.75,0-1.35,0-1.9h.94l.05,1h0a2.3,2.3,0,0,1,2.07-1.13c1.4,0,2.46,1.19,2.46,2.95,0,2.09-1.27,3.12-2.64,3.12a2.05,2.05,0,0,1-1.79-.91h0v3.15h-1.05Zm1.05,1.54a2,2,0,0,0,0,.44,1.62,1.62,0,0,0,1.58,1.23c1.11,0,1.76-.91,1.76-2.24,0-1.16-.61-2.16-1.73-2.16a1.68,1.68,0,0,0-1.59,1.31,1.55,1.55,0,0,0-.07.43Z" transform="translate(-18 -81.96)"/>
    <path d="M135.33,289.44a.66.66,0,0,1-1.31,0,.65.65,0,0,1,.66-.66A.63.63,0,0,1,135.33,289.44Zm-1.18,7.44v-5.81h1.06v5.81Z" transform="translate(-18 -81.96)"/>
    <path d="M137,292.88c0-.68,0-1.27-.05-1.81h.92l0,1.14h0a1.74,1.74,0,0,1,1.61-1.27,1,1,0,0,1,.3,0v1a1.94,1.94,0,0,0-.36,0,1.48,1.48,0,0,0-1.42,1.35,3.37,3.37,0,0,0-.05.49v3.1h-1Z" transform="translate(-18 -81.96)"/>
    <path d="M142.11,289.44a.63.63,0,0,1-.68.65.63.63,0,0,1-.63-.65.65.65,0,0,1,.66-.66A.63.63,0,0,1,142.11,289.44Zm-1.18,7.44v-5.81H142v5.81Z" transform="translate(-18 -81.96)"/>
    <path d="M145,289.41v1.66h1.51v.81H145V295c0,.72.2,1.12.79,1.12a2.15,2.15,0,0,0,.61-.07l.05.79a2.42,2.42,0,0,1-.93.15,1.45,1.45,0,0,1-1.14-.45A2.13,2.13,0,0,1,144,295v-3.16h-.9v-.81h.9v-1.39Z" transform="translate(-18 -81.96)"/>
    <path d="M152.57,295.29c0,.6,0,1.13.05,1.59h-.94l-.06-.95h0a2.19,2.19,0,0,1-1.92,1.08c-.91,0-2-.51-2-2.54v-3.4h1.06v3.22c0,1.1.34,1.84,1.3,1.84a1.54,1.54,0,0,0,1.39-1,1.49,1.49,0,0,0,.09-.54v-3.56h1.06Z" transform="translate(-18 -81.96)"/>
    <path d="M157.54,296.88l-.09-.73h0a2.19,2.19,0,0,1-1.78.86,1.65,1.65,0,0,1-1.77-1.67c0-1.4,1.24-2.17,3.49-2.16v-.12a1.19,1.19,0,0,0-1.32-1.34,2.9,2.9,0,0,0-1.51.43l-.24-.69a3.51,3.51,0,0,1,1.9-.52c1.78,0,2.21,1.21,2.21,2.37v2.18a7.44,7.44,0,0,0,.1,1.39Zm-.16-3c-1.15,0-2.46.17-2.46,1.3a.94.94,0,0,0,1,1,1.45,1.45,0,0,0,1.4-1,1,1,0,0,0,.06-.34Z" transform="translate(-18 -81.96)"/>
    <path d="M160.11,288.36h1v8.52h-1Z" transform="translate(-18 -81.96)"/>
    <path d="M119.46,308.73l-.84,2.55h-1.08l2.75-8.09h1.26l2.76,8.09h-1.12l-.86-2.55Zm2.65-.81-.79-2.33c-.18-.53-.3-1-.42-1.47h0c-.12.48-.25,1-.41,1.46l-.79,2.34Z" transform="translate(-18 -81.96)"/>
    <path d="M125.25,310.2a2.79,2.79,0,0,0,1.39.42c.77,0,1.13-.39,1.13-.87s-.3-.78-1.08-1.06c-1-.37-1.54-.95-1.54-1.65a1.79,1.79,0,0,1,2-1.7,2.91,2.91,0,0,1,1.43.36l-.26.77a2.22,2.22,0,0,0-1.19-.34c-.62,0-1,.36-1,.79s.35.7,1.1,1c1,.38,1.53.88,1.53,1.75s-.8,1.74-2.18,1.74A3.33,3.33,0,0,1,125,311Z" transform="translate(-18 -81.96)"/>
    <path d="M130,310.2a2.79,2.79,0,0,0,1.39.42c.77,0,1.13-.39,1.13-.87s-.3-.78-1.08-1.06c-1.05-.37-1.54-.95-1.54-1.65a1.8,1.8,0,0,1,2-1.7,2.9,2.9,0,0,1,1.42.36l-.26.77a2.22,2.22,0,0,0-1.19-.34c-.62,0-1,.36-1,.79s.35.7,1.1,1c1,.38,1.53.88,1.53,1.75s-.79,1.74-2.17,1.74a3.27,3.27,0,0,1-1.63-.4Z" transform="translate(-18 -81.96)"/>
    <path d="M135.48,308.57a1.86,1.86,0,0,0,2,2,3.8,3.8,0,0,0,1.61-.3l.18.76a4.67,4.67,0,0,1-1.93.36,2.69,2.69,0,0,1-2.85-2.93c0-1.75,1-3.13,2.72-3.13a2.47,2.47,0,0,1,2.4,2.74,4.35,4.35,0,0,1,0,.49Zm3.1-.76a1.5,1.5,0,0,0-1.47-1.71,1.74,1.74,0,0,0-1.61,1.71Z" transform="translate(-18 -81.96)"/>
    <path d="M140.91,307c0-.6,0-1.09,0-1.57h.92l.05.94h0a2,2,0,0,1,1.82-1.07,1.71,1.71,0,0,1,1.64,1.16h0a2.39,2.39,0,0,1,.64-.75,2,2,0,0,1,1.29-.41c.76,0,1.9.5,1.9,2.52v3.42h-1V308c0-1.11-.41-1.79-1.26-1.79a1.37,1.37,0,0,0-1.24,1,1.73,1.73,0,0,0-.09.53v3.59h-1V307.8c0-.92-.41-1.6-1.21-1.6a1.45,1.45,0,0,0-1.31,1.06,1.49,1.49,0,0,0-.08.52v3.5h-1Z" transform="translate(-18 -81.96)"/>
    <path d="M150.87,311.28c0-.4,0-1,0-1.5v-7h1v3.65h0a2.17,2.17,0,0,1,2-1.07c1.44,0,2.46,1.2,2.45,3,0,2.08-1.31,3.11-2.61,3.11a2.07,2.07,0,0,1-1.94-1.09h0l-.05,1ZM152,309a1.58,1.58,0,0,0,0,.38,1.61,1.61,0,0,0,1.58,1.24c1.1,0,1.76-.9,1.76-2.23,0-1.16-.6-2.16-1.73-2.16a1.68,1.68,0,0,0-1.6,1.3,1.71,1.71,0,0,0-.06.43Z" transform="translate(-18 -81.96)"/>
    <path d="M157.74,302.76h1.06v8.52h-1.06Z" transform="translate(-18 -81.96)"/>
    <path d="M161,305.47l1.27,3.43c.13.39.28.84.37,1.19h0c.1-.35.22-.79.37-1.21l1.15-3.41h1.11l-1.58,4.14c-.75,2-1.27,3-2,3.63a2.87,2.87,0,0,1-1.3.69l-.26-.89a2.65,2.65,0,0,0,.92-.52,3.09,3.09,0,0,0,.89-1.17.76.76,0,0,0,.09-.25.94.94,0,0,0-.08-.28l-2.14-5.35Z" transform="translate(-18 -81.96)"/>
  </g>
  <g>
    <path d="M84.16,489.39v4.79c0,1.81.8,2.58,1.88,2.58s2-.79,2-2.58v-4.79h1v4.72c0,2.48-1.3,3.5-3,3.5s-2.91-.95-2.91-3.46v-4.76Z" transform="translate(-18 -81.96)"/>
    <path d="M90.84,493.24c0-.6,0-1.09,0-1.57h.94l.06,1h0a2.14,2.14,0,0,1,1.92-1.09c.81,0,2,.48,2,2.47v3.47h-1v-3.35c0-.93-.35-1.71-1.34-1.71A1.5,1.5,0,0,0,92,493.5a1.45,1.45,0,0,0-.07.49v3.49H90.84Z" transform="translate(-18 -81.96)"/>
    <path d="M98.68,490a.62.62,0,0,1-.67.65.63.63,0,0,1-.64-.65.65.65,0,0,1,.66-.66A.63.63,0,0,1,98.68,490Zm-1.18,7.44v-5.81h1.06v5.81Z" transform="translate(-18 -81.96)"/>
    <path d="M100.72,491.67l1.14,3.26c.19.53.35,1,.47,1.49h0c.13-.48.3-1,.49-1.49l1.13-3.26h1.1l-2.27,5.81h-1l-2.21-5.81Z" transform="translate(-18 -81.96)"/>
    <path d="M106.55,494.77a1.86,1.86,0,0,0,2,2,3.8,3.8,0,0,0,1.61-.3l.18.76a4.84,4.84,0,0,1-1.93.36,2.7,2.7,0,0,1-2.86-2.93c0-1.75,1-3.13,2.73-3.13a2.46,2.46,0,0,1,2.39,2.73,4.92,4.92,0,0,1,0,.5Zm3.09-.76a1.5,1.5,0,0,0-1.46-1.72,1.76,1.76,0,0,0-1.62,1.72Z" transform="translate(-18 -81.96)"/>
    <path d="M112,493.48c0-.68,0-1.27,0-1.81h.92l0,1.14h0a1.75,1.75,0,0,1,1.61-1.27,1,1,0,0,1,.3,0v1a1.94,1.94,0,0,0-.36,0,1.47,1.47,0,0,0-1.41,1.35,2.38,2.38,0,0,0,0,.49v3.1h-1Z" transform="translate(-18 -81.96)"/>
    <path d="M115.75,496.4a2.86,2.86,0,0,0,1.4.42c.76,0,1.12-.39,1.12-.87s-.3-.78-1.08-1.06c-1-.38-1.53-.95-1.53-1.65a1.79,1.79,0,0,1,2-1.7,2.94,2.94,0,0,1,1.43.36l-.27.77a2.15,2.15,0,0,0-1.18-.34c-.63,0-1,.36-1,.79s.34.7,1.1,1c1,.38,1.52.88,1.52,1.75s-.79,1.74-2.17,1.74a3.33,3.33,0,0,1-1.63-.4Z" transform="translate(-18 -81.96)"/>
    <path d="M123.86,497.48l-.08-.73h0a2.16,2.16,0,0,1-1.77.86,1.66,1.66,0,0,1-1.78-1.67c0-1.4,1.25-2.17,3.49-2.16v-.12a1.19,1.19,0,0,0-1.31-1.34,3,3,0,0,0-1.52.43l-.24-.69a3.55,3.55,0,0,1,1.91-.52c1.78,0,2.21,1.21,2.21,2.37v2.17a8.52,8.52,0,0,0,.09,1.4Zm-.15-3c-1.15,0-2.46.18-2.46,1.31a.94.94,0,0,0,1,1,1.45,1.45,0,0,0,1.4-1,1.35,1.35,0,0,0,.06-.34Z" transform="translate(-18 -81.96)"/>
    <path d="M126.43,489h1.06v8.52h-1.06Z" transform="translate(-18 -81.96)"/>
    <path d="M85,503.79v3.39H89v-3.39H90v8.09H89v-3.79H85v3.79H84v-8.09Z" transform="translate(-18 -81.96)"/>
    <path d="M97,508.93A2.84,2.84,0,0,1,94.15,512a2.76,2.76,0,0,1-2.78-3,2.83,2.83,0,0,1,2.87-3.08A2.75,2.75,0,0,1,97,508.93Zm-4.61.06c0,1.27.74,2.23,1.77,2.23S96,510.27,96,509c0-1-.49-2.23-1.74-2.23S92.43,507.88,92.43,509Z" transform="translate(-18 -81.96)"/>
    <path d="M103.23,510.29c0,.6,0,1.13,0,1.59h-.94l-.06-.95h0a2.19,2.19,0,0,1-1.92,1.08c-.91,0-2-.51-2-2.54v-3.4h1v3.22c0,1.1.34,1.84,1.3,1.84a1.52,1.52,0,0,0,1.39-1,1.49,1.49,0,0,0,.1-.54v-3.56h1Z" transform="translate(-18 -81.96)"/>
    <path d="M104.84,510.8a2.82,2.82,0,0,0,1.39.42c.77,0,1.13-.39,1.13-.87s-.3-.78-1.08-1.06c-1-.37-1.53-1-1.53-1.65a1.79,1.79,0,0,1,2-1.7,2.94,2.94,0,0,1,1.43.36l-.27.77a2.22,2.22,0,0,0-1.19-.34c-.62,0-1,.36-1,.79s.35.7,1.11,1c1,.38,1.52.88,1.52,1.75s-.79,1.74-2.17,1.74a3.3,3.3,0,0,1-1.63-.4Z" transform="translate(-18 -81.96)"/>
    <path d="M110.33,509.17a1.85,1.85,0,0,0,2,2,3.75,3.75,0,0,0,1.6-.3l.18.76a4.8,4.8,0,0,1-1.93.36,2.7,2.7,0,0,1-2.85-2.93c0-1.75,1-3.13,2.72-3.13a2.46,2.46,0,0,1,2.4,2.73,2.85,2.85,0,0,1,0,.5Zm3.09-.76A1.5,1.5,0,0,0,112,506.7a1.74,1.74,0,0,0-1.62,1.71Z" transform="translate(-18 -81.96)"/>
    <path d="M123.55,508.93a2.84,2.84,0,0,1-2.89,3.08,2.76,2.76,0,0,1-2.79-3,2.83,2.83,0,0,1,2.88-3.08A2.75,2.75,0,0,1,123.55,508.93Zm-4.61.06c0,1.27.73,2.23,1.76,2.23s1.77-1,1.77-2.26c0-1-.49-2.23-1.74-2.23S118.94,507.88,118.94,509Z" transform="translate(-18 -81.96)"/>
    <path d="M125,511.88v-5h-.82v-.81H125v-.27a2.75,2.75,0,0,1,.67-2,2,2,0,0,1,1.42-.54,2.36,2.36,0,0,1,.9.17l-.15.81a1.58,1.58,0,0,0-.67-.13c-.9,0-1.13.79-1.13,1.68v.31h1.41v.81H126v5Z" transform="translate(-18 -81.96)"/>
    <path d="M90.91,518.19h1v5.41c0,2.15-1.06,2.81-2.45,2.81a3.3,3.3,0,0,1-1.11-.19l.15-.85a2.63,2.63,0,0,0,.88.15c.93,0,1.48-.42,1.48-2Z" transform="translate(-18 -81.96)"/>
    <path d="M98.52,524.69c0,.6,0,1.13,0,1.59h-.94l-.06-.95h0a2.19,2.19,0,0,1-1.92,1.08c-.91,0-2-.5-2-2.54v-3.4h1.05v3.22c0,1.1.34,1.84,1.3,1.84a1.53,1.53,0,0,0,1.39-1,1.49,1.49,0,0,0,.09-.54v-3.56h1.06Z" transform="translate(-18 -81.96)"/>
    <path d="M100.13,525.2a2.79,2.79,0,0,0,1.39.42c.77,0,1.13-.39,1.13-.87s-.3-.78-1.08-1.06c-1-.37-1.53-1-1.53-1.65a1.79,1.79,0,0,1,2-1.7,2.87,2.87,0,0,1,1.42.36l-.26.77a2.22,2.22,0,0,0-1.19-.34c-.62,0-1,.36-1,.79s.35.7,1.11,1c1,.38,1.52.88,1.52,1.75s-.79,1.74-2.17,1.74a3.3,3.3,0,0,1-1.63-.4Z" transform="translate(-18 -81.96)"/>
    <path d="M106.3,518.81v1.66h1.51v.81H106.3v3.13c0,.72.2,1.12.79,1.12a2.15,2.15,0,0,0,.61-.07l0,.79a2.44,2.44,0,0,1-.94.15,1.47,1.47,0,0,1-1.14-.45,2.18,2.18,0,0,1-.4-1.51v-3.16h-.9v-.81h.9v-1.39Z" transform="translate(-18 -81.96)"/>
    <path d="M110.17,518.84a.62.62,0,0,1-.67.65.63.63,0,0,1-.63-.65.64.64,0,0,1,.66-.66A.62.62,0,0,1,110.17,518.84ZM109,526.28v-5.81h1v5.81Z" transform="translate(-18 -81.96)"/>
    <path d="M115.94,526.06a3.72,3.72,0,0,1-1.66.34,2.76,2.76,0,0,1-2.89-3,3,3,0,0,1,3.11-3.08,3.61,3.61,0,0,1,1.47.3l-.24.82a2.39,2.39,0,0,0-1.23-.28,2.19,2.19,0,0,0,0,4.37,3,3,0,0,0,1.29-.29Z" transform="translate(-18 -81.96)"/>
    <path d="M117.7,523.57a1.85,1.85,0,0,0,2,2,3.83,3.83,0,0,0,1.61-.3l.18.76a4.72,4.72,0,0,1-1.94.36,2.7,2.7,0,0,1-2.85-2.93c0-1.75,1-3.13,2.72-3.13a2.46,2.46,0,0,1,2.4,2.74,4.88,4.88,0,0,1,0,.49Zm3.09-.76a1.5,1.5,0,0,0-1.46-1.71,1.74,1.74,0,0,0-1.62,1.71Z" transform="translate(-18 -81.96)"/>
  </g>
  <path d="M32.43,107.17c9,14.14,20.7,26.36,29.73,40.54a237.42,237.42,0,0,1,21.92,43.94,239.16,239.16,0,0,1,15,96c-.1,1.93,2.9,1.93,3,0A241.53,241.53,0,0,0,87,190.85a240.79,240.79,0,0,0-21.32-43.23c-9.23-14.74-21.29-27.35-30.63-42-1-1.62-3.63-.12-2.59,1.51Z" transform="translate(-18 -81.96)"/>
  <path d="M99.3,286.43c-3.1,60.21-37.82,112.06-53.59,169a199.7,199.7,0,0,0-7.52,47.38c0,1.93,3,1.93,3,0C43,442.5,77.5,390.37,93.93,333.77a208,208,0,0,0,8.37-47.34c.1-1.93-2.9-1.93-3,0Z" transform="translate(-18 -81.96)"/>
</svg>
